<svg xmlns="http://www.w3.org/2000/svg" width="360.028" height="86.555" viewBox="0 0 360.028 86.555"><defs><style>.a{fill:#002bff;}</style></defs><g transform="translate(-256.7 -605.016)"><path class="a" d="M-537-49.479v0c0-.032,0-.064,0-.1v-.108c0-17.434,12.657-30.94,31.261-31.28a34.67,34.67,0,0,1,12.425,2.452v-24.5h18.693l.544,52.149s-.536,8.627-2.37,12.79c-.077.176-.168.36-.272.551-4.3,10.873-14.592,18.429-29.02,19.081C-525.019-19.316-536.9-32.513-537-49.479Zm299.707-.536c0-17.285,12.528-30.624,30.856-30.624,16.936,0,29.464,13.108,29.464,30.624a33.756,33.756,0,0,1-.7,6.96h-41.18c2.2,6.032,7.54,8.12,13.92,8.12a15.142,15.142,0,0,0,11.136-4.408l13.92,8c-5.684,7.888-14.268,11.948-25.288,11.948C-225-19.392-237.292-32.732-237.292-50.016Zm18.1-6.033h24.94c-1.856-6.728-7.076-9.164-12.3-9.164C-213.164-65.212-217.572-61.964-219.2-56.048Zm-45.356,35.033v-58h17.4v58Zm-26.1,0-18.56-25.637v25.637h-17.4v-81.2h17.4v48.6l17.4-25.4h20.3l-21.112,29,21.692,29Zm-65.308,0v-33.06c0-7.193-4.524-10.556-10.093-10.556-6.38,0-10.787,3.712-10.787,11.947v31.668h-17.4v-58h17.4v5.452c3.132-4.292,8.932-7.076,16.588-7.076,11.716,0,21.692,8.352,21.692,24.012v35.612Zm-68.441,0v-58H-407v58Zm-42.92,0v-58h17.4v10.325c2.319-7.772,10.092-11.484,17.4-11.484v19.72c-7.192-1.16-17.4,1.74-17.4,13.224v26.216ZM-266.292-94.56A10.547,10.547,0,0,1-255.852-105a10.547,10.547,0,0,1,10.44,10.44,10.547,10.547,0,0,1-10.44,10.44A10.546,10.546,0,0,1-266.292-94.56Zm-159.848,0A10.547,10.547,0,0,1-415.7-105a10.547,10.547,0,0,1,10.44,10.44A10.547,10.547,0,0,1-415.7-84.12,10.546,10.546,0,0,1-426.14-94.56Z" transform="translate(793.7 710.016)"/></g></svg>